<?xml version="1.0" encoding="UTF-8" standalone="no"?><svg xmlns="http://www.w3.org/2000/svg" xmlns:xlink="http://www.w3.org/1999/xlink" contentScriptType="application/ecmascript" contentStyleType="text/css" height="306px" preserveAspectRatio="none" style="width:395px;height:306px;background:#00000000;" version="1.1" viewBox="0 0 395 306" width="395px" zoomAndPan="magnify"><defs/><g><text fill="#FFCC00" font-family="sans-serif" font-size="18" lengthAdjust="spacing" textLength="386" x="2" y="16.708">SE Linux D-bus - Simplified class Diagram</text><!--MD5=[4a152014afc132fd16997077a191672c]
class SdBusEndpoint--><rect codeLine="15" height="73.6094" id="SdBusEndpoint" style="stroke:#FFCC00;stroke-width:1.5;fill:none;" width="122" x="141.25" y="27.9531"/><ellipse cx="156.25" cy="43.9531" fill="#ADD1B2" rx="11" ry="11" style="stroke:#FFCC00;stroke-width:1.0;"/><path d="M158.5938,39.625 C157.6563,39.1875 157.0625,39.0469 156.1875,39.0469 C153.5625,39.0469 151.5625,41.125 151.5625,43.8438 L151.5625,44.9688 C151.5625,47.5469 153.6719,49.4375 156.5625,49.4375 C157.7813,49.4375 158.9375,49.1406 159.6875,48.5938 C160.2656,48.1875 160.5938,47.7344 160.5938,47.3438 C160.5938,46.8906 160.2031,46.5 159.7344,46.5 C159.5156,46.5 159.3125,46.5781 159.125,46.7656 C158.6719,47.25 158.6719,47.25 158.4844,47.3438 C158.0625,47.6094 157.375,47.7344 156.6094,47.7344 C154.5625,47.7344 153.2656,46.6406 153.2656,44.9375 L153.2656,43.8438 C153.2656,42.0625 154.5156,40.75 156.25,40.75 C156.8281,40.75 157.4375,40.9063 157.9063,41.1563 C158.3906,41.4375 158.5625,41.6563 158.6563,42.0625 C158.7188,42.4688 158.75,42.5938 158.8906,42.7188 C159.0313,42.8594 159.2656,42.9688 159.4844,42.9688 C159.75,42.9688 160.0156,42.8281 160.1875,42.6094 C160.2969,42.4531 160.3281,42.2656 160.3281,41.8438 L160.3281,40.4219 C160.3281,39.9844 160.3125,39.8594 160.2188,39.7031 C160.0625,39.4375 159.7813,39.2969 159.4844,39.2969 C159.1875,39.2969 158.9844,39.3906 158.7656,39.7031 L158.5938,39.625 Z " fill="#000000"/><text fill="#FFCC00" font-family="sans-serif" font-size="12" lengthAdjust="spacing" textLength="90" x="170.25" y="48.1074">SdBusEndpoint</text><line style="stroke:#FFCC00;stroke-width:1.5;" x1="142.25" x2="262.25" y1="59.9531" y2="59.9531"/><rect fill="none" height="6" style="stroke:#C82930;stroke-width:1.0;" width="6" x="149.25" y="67.9531"/><text fill="#FFCC00" font-family="sans-serif" font-size="11" lengthAdjust="spacing" textLength="62" x="161.25" y="74.1636">connection</text><line style="stroke:#FFCC00;stroke-width:1.5;" x1="142.25" x2="262.25" y1="80.7578" y2="80.7578"/><polygon fill="#FFFF44" points="152.25,86.7578,156.25,90.7578,152.25,94.7578,148.25,90.7578" style="stroke:#B38D22;stroke-width:1.0;"/><text fill="#FFCC00" font-family="sans-serif" font-size="11" lengthAdjust="spacing" textLength="91" x="161.25" y="94.9683">getConnection()</text><!--MD5=[f7e0bd42b4a9162285945ca7840ef03f]
class SdBusClient--><rect codeLine="21" height="86.4141" id="SdBusClient" style="stroke:#FFCC00;stroke-width:1.5;fill:none;" width="116" x="70.25" y="187.9531"/><ellipse cx="91.1" cy="203.9531" fill="#ADD1B2" rx="11" ry="11" style="stroke:#FFCC00;stroke-width:1.0;"/><path d="M93.4438,199.625 C92.5063,199.1875 91.9125,199.0469 91.0375,199.0469 C88.4125,199.0469 86.4125,201.125 86.4125,203.8438 L86.4125,204.9688 C86.4125,207.5469 88.5219,209.4375 91.4125,209.4375 C92.6313,209.4375 93.7875,209.1406 94.5375,208.5938 C95.1156,208.1875 95.4438,207.7344 95.4438,207.3438 C95.4438,206.8906 95.0531,206.5 94.5844,206.5 C94.3656,206.5 94.1625,206.5781 93.975,206.7656 C93.5219,207.25 93.5219,207.25 93.3344,207.3438 C92.9125,207.6094 92.225,207.7344 91.4594,207.7344 C89.4125,207.7344 88.1156,206.6406 88.1156,204.9375 L88.1156,203.8438 C88.1156,202.0625 89.3656,200.75 91.1,200.75 C91.6781,200.75 92.2875,200.9063 92.7563,201.1563 C93.2406,201.4375 93.4125,201.6563 93.5063,202.0625 C93.5688,202.4688 93.6,202.5938 93.7406,202.7188 C93.8813,202.8594 94.1156,202.9688 94.3344,202.9688 C94.6,202.9688 94.8656,202.8281 95.0375,202.6094 C95.1469,202.4531 95.1781,202.2656 95.1781,201.8438 L95.1781,200.4219 C95.1781,199.9844 95.1625,199.8594 95.0688,199.7031 C94.9125,199.4375 94.6313,199.2969 94.3344,199.2969 C94.0375,199.2969 93.8344,199.3906 93.6156,199.7031 L93.4438,199.625 Z " fill="#000000"/><text fill="#FFCC00" font-family="sans-serif" font-size="12" lengthAdjust="spacing" textLength="71" x="106.4" y="208.1074">SdBusClient</text><line style="stroke:#FFCC00;stroke-width:1.5;" x1="71.25" x2="185.25" y1="219.9531" y2="219.9531"/><line style="stroke:#FFCC00;stroke-width:1.5;" x1="71.25" x2="185.25" y1="227.9531" y2="227.9531"/><ellipse cx="81.25" cy="238.9531" fill="#84BE84" rx="3" ry="3" style="stroke:#038048;stroke-width:1.0;"/><text fill="#FFCC00" font-family="sans-serif" font-size="11" lengthAdjust="spacing" textLength="64" x="90.25" y="242.1636">introspect()</text><ellipse cx="81.25" cy="251.7578" fill="#84BE84" rx="3" ry="3" style="stroke:#038048;stroke-width:1.0;"/><text fill="#FFCC00" font-family="sans-serif" font-size="11" lengthAdjust="spacing" textLength="90" x="90.25" y="254.9683">callGetMethod()</text><ellipse cx="81.25" cy="264.5625" fill="#84BE84" rx="3" ry="3" style="stroke:#038048;stroke-width:1.0;"/><text fill="#FFCC00" font-family="sans-serif" font-size="11" lengthAdjust="spacing" textLength="89" x="90.25" y="267.7729">callSetMethod()</text><!--MD5=[82028fc6ba91d238ddfc197d8eea7fff]
class SdBusServer--><rect codeLine="28" height="137.6328" id="SdBusServer" style="stroke:#FFCC00;stroke-width:1.5;fill:none;" width="111" x="221.75" y="161.9531"/><ellipse cx="236.75" cy="177.9531" fill="#ADD1B2" rx="11" ry="11" style="stroke:#FFCC00;stroke-width:1.0;"/><path d="M239.0938,173.625 C238.1563,173.1875 237.5625,173.0469 236.6875,173.0469 C234.0625,173.0469 232.0625,175.125 232.0625,177.8438 L232.0625,178.9688 C232.0625,181.5469 234.1719,183.4375 237.0625,183.4375 C238.2813,183.4375 239.4375,183.1406 240.1875,182.5938 C240.7656,182.1875 241.0938,181.7344 241.0938,181.3438 C241.0938,180.8906 240.7031,180.5 240.2344,180.5 C240.0156,180.5 239.8125,180.5781 239.625,180.7656 C239.1719,181.25 239.1719,181.25 238.9844,181.3438 C238.5625,181.6094 237.875,181.7344 237.1094,181.7344 C235.0625,181.7344 233.7656,180.6406 233.7656,178.9375 L233.7656,177.8438 C233.7656,176.0625 235.0156,174.75 236.75,174.75 C237.3281,174.75 237.9375,174.9063 238.4063,175.1563 C238.8906,175.4375 239.0625,175.6563 239.1563,176.0625 C239.2188,176.4688 239.25,176.5938 239.3906,176.7188 C239.5313,176.8594 239.7656,176.9688 239.9844,176.9688 C240.25,176.9688 240.5156,176.8281 240.6875,176.6094 C240.7969,176.4531 240.8281,176.2656 240.8281,175.8438 L240.8281,174.4219 C240.8281,173.9844 240.8125,173.8594 240.7188,173.7031 C240.5625,173.4375 240.2813,173.2969 239.9844,173.2969 C239.6875,173.2969 239.4844,173.3906 239.2656,173.7031 L239.0938,173.625 Z " fill="#000000"/><text fill="#FFCC00" font-family="sans-serif" font-size="12" lengthAdjust="spacing" textLength="79" x="250.75" y="182.1074">SdBusServer</text><line style="stroke:#FFCC00;stroke-width:1.5;" x1="222.75" x2="331.75" y1="193.9531" y2="193.9531"/><rect fill="none" height="6" style="stroke:#C82930;stroke-width:1.0;" width="6" x="229.75" y="201.9531"/><text fill="#FFCC00" font-family="sans-serif" font-size="11" lengthAdjust="spacing" textLength="33" x="241.75" y="208.1636">name</text><rect fill="none" height="6" style="stroke:#C82930;stroke-width:1.0;" width="6" x="229.75" y="214.7578"/><text fill="#FFCC00" font-family="sans-serif" font-size="11" lengthAdjust="spacing" textLength="35" x="241.75" y="220.9683">object</text><rect fill="none" height="6" style="stroke:#C82930;stroke-width:1.0;" width="6" x="229.75" y="227.5625"/><text fill="#FFCC00" font-family="sans-serif" font-size="11" lengthAdjust="spacing" textLength="51" x="241.75" y="233.7729">interface</text><rect fill="none" height="6" style="stroke:#C82930;stroke-width:1.0;" width="6" x="229.75" y="240.3672"/><text fill="#FFCC00" font-family="sans-serif" font-size="11" lengthAdjust="spacing" textLength="50" x="241.75" y="246.5776">methods</text><line style="stroke:#FFCC00;stroke-width:1.5;" x1="222.75" x2="331.75" y1="253.1719" y2="253.1719"/><ellipse cx="232.75" cy="264.1719" fill="#84BE84" rx="3" ry="3" style="stroke:#038048;stroke-width:1.0;"/><text fill="#FFCC00" font-family="sans-serif" font-size="11" lengthAdjust="spacing" textLength="52" x="241.75" y="267.3823">process()</text><polygon fill="#FFFF44" points="232.75,271.9766,236.75,275.9766,232.75,279.9766,228.75,275.9766" style="stroke:#B38D22;stroke-width:1.0;"/><text fill="#FFCC00" font-family="sans-serif" font-size="11" lengthAdjust="spacing" textLength="68" x="241.75" y="280.187">sendReply()</text><polygon fill="#FFFF44" points="232.75,284.7813,236.75,288.7813,232.75,292.7813,228.75,288.7813" style="stroke:#B38D22;stroke-width:1.0;"/><text fill="#FFCC00" font-family="sans-serif" font-size="11" lengthAdjust="spacing" textLength="62" x="241.75" y="292.9917">sendError()</text><!--MD5=[aac1d218d5b7bc6d2d9858cb111b62f0]
reverse link SdBusEndpoint to SdBusClient--><path codeLine="39" d="M177.564,120.6621 C167.6794,142.5691 156.4712,167.4091 147.2408,187.8651 " fill="none" id="SdBusEndpoint-backto-SdBusClient" style="stroke:#FFCC00;stroke-width:1.0;"/><polygon fill="none" points="171.221,117.7011,185.827,102.3501,183.982,123.4591,171.221,117.7011" style="stroke:#FFCC00;stroke-width:1.0;"/><!--MD5=[4e4ef95555c142c627dea5c9942d97ba]
reverse link SdBusEndpoint to SdBusServer--><path codeLine="40" d="M227.267,120.6571 C233.275,133.7931 239.764,147.9841 246.015,161.6531 " fill="none" id="SdBusEndpoint-backto-SdBusServer" style="stroke:#FFCC00;stroke-width:1.0;"/><polygon fill="none" points="220.847,123.4491,218.895,102.3501,233.579,117.6271,220.847,123.4491" style="stroke:#FFCC00;stroke-width:1.0;"/><!--MD5=[f1ab8a7dfce89a1165192dbd90c46e75]
@startuml
title SE Linux D-bus - Simplified class Diagram

skinparam backgroundColor transparent
skinparam shadowing false
skinparam titleFontColor #ffcc00

skinparam class {
BackgroundColor transparent
BorderColor #ffcc00
ArrowColor #ffcc00
FontColor #ffcc00
AttributeFontColor #ffcc00
}

class SdBusEndpoint
{
    -connection
    #getConnection()
}

class SdBusClient
{
    +introspect()
    +callGetMethod()
    +callSetMethod()
}

class SdBusServer
{
    -name
    -object
    -interface
    -methods
    +process()
    #sendReply()
    #sendError()
}

SdBusEndpoint <|-down- SdBusClient
SdBusEndpoint <|-down- SdBusServer
@enduml

PlantUML version 1.2021.15beta8(Unknown compile time)
(GPL source distribution)
Java Runtime: Java(TM) SE Runtime Environment
JVM: Java HotSpot(TM) 64-Bit Server VM
Default Encoding: UTF-8
Language: en
Country: US
--></g></svg>