<?xml version="1.0" encoding="UTF-8" standalone="no"?><svg xmlns="http://www.w3.org/2000/svg" xmlns:xlink="http://www.w3.org/1999/xlink" contentScriptType="application/ecmascript" contentStyleType="text/css" height="368px" preserveAspectRatio="none" style="width:868px;height:368px;background:#00000000;" version="1.1" viewBox="0 0 868 368" width="868px" zoomAndPan="magnify"><defs/><g><text fill="#FFCC00" font-family="sans-serif" font-size="18" lengthAdjust="spacing" textLength="223" x="316" y="16.708">SE Linux D-bus services</text><ellipse cx="331.8807" cy="42.9293" rx="67.8807" ry="15.9761" style="stroke:#FFCC00;stroke-width:1.5;fill:none;"/><text fill="#FFCC00" font-family="sans-serif" font-size="14" lengthAdjust="spacing" textLength="87" x="285.3807" y="46.6768">D-bus client</text><ellipse cx="551.8518" cy="192.0235" rx="88.3518" ry="20.0704" style="stroke:#FFCC00;stroke-width:1.5;fill:none;"/><text fill="#FFCC00" font-family="sans-serif" font-size="14" lengthAdjust="spacing" textLength="138" x="482.8518" y="194.8702">se-version-checker</text><ellipse cx="551.9342" cy="336.0057" rx="74.4342" ry="26.0526" style="stroke:#FFCC00;stroke-width:1.5;fill:none;"/><text fill="#FFCC00" font-family="sans-serif" font-size="14" lengthAdjust="spacing" textLength="89" x="506.3518" y="331.0532">se-identifier</text><text fill="#FFCC00" font-family="sans-serif" font-size="14" lengthAdjust="spacing" textLength="51" x="525.3518" y="347.3501">service</text><ellipse cx="92.014" cy="192.0791" rx="86.014" ry="26.1259" style="stroke:#FFCC00;stroke-width:1.5;fill:none;"/><text fill="#FFCC00" font-family="sans-serif" font-size="14" lengthAdjust="spacing" textLength="105" x="36.514" y="187.6782">se-downloader</text><text fill="#FFCC00" font-family="sans-serif" font-size="14" lengthAdjust="spacing" textLength="51" x="63.514" y="203.9751">service</text><ellipse cx="187.033" cy="336.0004" rx="56.033" ry="26.0473" style="stroke:#FFCC00;stroke-width:1.5;fill:none;"/><text fill="#FFCC00" font-family="sans-serif" font-size="14" lengthAdjust="spacing" textLength="63" x="155.533" y="330.6986">se-proxy</text><text fill="#FFCC00" font-family="sans-serif" font-size="14" lengthAdjust="spacing" textLength="51" x="161.533" y="346.9955">service</text><ellipse cx="740.1869" cy="192.0165" rx="39.1869" ry="14.5634" style="stroke:#FFCC00;stroke-width:1.5;fill:none;"/><text fill="#FFCC00" font-family="sans-serif" font-size="14" lengthAdjust="spacing" textLength="39" x="718.5666" y="195.5408">RAUC</text><!--MD5=[296cfb82a66fd525548ef21f925023cb]
link cl to ck--><path d="M391.62,50.8121 C441.69,57.7781 508.017,70.2261 527,88.9531 C547.634,109.3091 552.282,143.7191 552.841,166.8771 " fill="none" id="cl-to-ck" style="stroke:#FFCC00;stroke-width:1.0;"/><polygon fill="#FFCC00" points="552.902,171.9271,556.7911,162.8787,552.8406,166.9275,548.7917,162.9769,552.902,171.9271" style="stroke:#FFCC00;stroke-width:1.0;"/><text fill="#FFCC00" font-family="sans-serif" font-size="13" lengthAdjust="spacing" textLength="0" x="619" y="102.02"/><ellipse cx="558" cy="112.7188" fill="#FFCC00" rx="2.5" ry="2.5" style="stroke:#FFCC00;stroke-width:0.0;"/><text fill="#FFCC00" font-family="sans-serif" font-size="13" lengthAdjust="spacing" textLength="116" x="565.5" y="117.1528">Available versions</text><ellipse cx="556.5" cy="127.8516" fill="#FFCC00" rx="2.5" ry="2.5" style="stroke:#FFCC00;stroke-width:0.0;"/><text fill="#FFCC00" font-family="sans-serif" font-size="13" lengthAdjust="spacing" textLength="119" x="564" y="132.2856">Check algorithm id</text><!--MD5=[ac0438c873b41a1ae3a102b84df872e4]
reverse link cl to ck--><path d="M323.281,64.0601 C315.963,84.3941 309.022,115.6421 325,135.9531 C330.202,142.5661 424.105,163.7291 489.487,177.7911 " fill="none" id="cl-backto-ck" style="stroke:#FFCC00;stroke-width:1.0;"/><polygon fill="#FFCC00" points="325.136,59.1391,318.2177,66.1489,323.3718,63.8175,325.7031,68.9716,325.136,59.1391" style="stroke:#FFCC00;stroke-width:1.0;"/><text fill="#FFCC00" font-family="sans-serif" font-size="13" lengthAdjust="spacing" textLength="0" x="424" y="109.52"/><ellipse cx="331.5" cy="120.2188" fill="#FFCC00" rx="2.5" ry="2.5" style="stroke:#FFCC00;stroke-width:0.0;"/><text fill="#FFCC00" font-family="sans-serif" font-size="13" lengthAdjust="spacing" textLength="179" x="339" y="124.6528">Acknowledgement / Refusal</text><!--MD5=[ecca20d115ac77f8563172bccdb217c1]
reverse link ck to id--><path d="M552,217.3861 C552,243.2351 552,283.8187 552,309.9009 " fill="none" id="ck-backto-id" style="stroke:#FFCC00;stroke-width:1.0;"/><polygon fill="#FFCC00" points="552,212.1041,548,221.1041,552,217.1041,556,221.1041,552,212.1041" style="stroke:#FFCC00;stroke-width:1.0;"/><text fill="#FFCC00" font-family="sans-serif" font-size="13" lengthAdjust="spacing" textLength="0" x="614.5" y="261.02"/><ellipse cx="558.5" cy="271.7188" fill="#FFCC00" rx="2.5" ry="2.5" style="stroke:#FFCC00;stroke-width:0.0;"/><text fill="#FFCC00" font-family="sans-serif" font-size="13" lengthAdjust="spacing" textLength="106" x="566" y="276.1528">Current versions</text><!--MD5=[d2c59ead83092f8fad1a0db52fc71817]
link cl to prx--><path d="M322.981,58.9901 C318.096,67.5621 312.216,78.6241 308,88.9531 C274.566,170.8541 300.248,205.8061 252,279.9531 C244.317,291.7606 233.347,302.3989 222.601,311.1022 " fill="none" id="cl-to-prx" style="stroke:#FFCC00;stroke-width:1.0;"/><polygon fill="#FFCC00" points="218.659,314.2197,228.1995,311.7746,222.5809,311.1183,223.2372,305.4996,218.659,314.2197" style="stroke:#FFCC00;stroke-width:1.0;"/><text fill="#FFCC00" font-family="sans-serif" font-size="13" lengthAdjust="spacing" textLength="0" x="361" y="189.02"/><ellipse cx="295.5" cy="199.7188" fill="#FFCC00" rx="2.5" ry="2.5" style="stroke:#FFCC00;stroke-width:0.0;"/><text fill="#FFCC00" font-family="sans-serif" font-size="13" lengthAdjust="spacing" textLength="125" x="303" y="204.1528">Proxy configuration</text><!--MD5=[44088301ddcfb6b54154df7c408fabcb]
link cl to dl--><path d="M265.774,46.6151 C200.045,50.8131 105.8845,61.5621 83,88.9531 C66.4695,108.7391 71.5576,138.8431 79.0747,161.2251 " fill="none" id="cl-to-dl" style="stroke:#FFCC00;stroke-width:1.0;"/><polygon fill="#FFCC00" points="80.8136,166.1631,81.5959,156.3454,79.1522,161.4472,74.0504,159.0035,80.8136,166.1631" style="stroke:#FFCC00;stroke-width:1.0;"/><text fill="#FFCC00" font-family="sans-serif" font-size="13" lengthAdjust="spacing" textLength="0" x="167.5" y="102.02"/><ellipse cx="128" cy="112.7188" fill="#FFCC00" rx="2.5" ry="2.5" style="stroke:#FFCC00;stroke-width:0.0;"/><text fill="#FFCC00" font-family="sans-serif" font-size="13" lengthAdjust="spacing" textLength="73" x="135.5" y="117.1528">Source URL</text><ellipse cx="89.5" cy="127.8516" fill="#FFCC00" rx="2.5" ry="2.5" style="stroke:#FFCC00;stroke-width:0.0;"/><text fill="#FFCC00" font-family="sans-serif" font-size="13" lengthAdjust="spacing" textLength="150" x="97" y="132.2856">Destination file location</text><!--MD5=[0e8d476db11cbb9f93daf1c792adaa19]
reverse link dl to prx--><path d="M91.9674,223.4021 C93.2564,241.1351 97.2224,263.2215 108,279.9531 C117.955,295.4074 133.941,307.7354 148.937,316.7704 " fill="none" id="dl-backto-prx" style="stroke:#FFCC00;stroke-width:1.0;"/><polygon fill="#FFCC00" points="91.6488,218.0501,88.1907,227.2719,91.9459,223.0413,96.1766,226.7965,91.6488,218.0501" style="stroke:#FFCC00;stroke-width:1.0;"/><text fill="#FFCC00" font-family="sans-serif" font-size="13" lengthAdjust="spacing" textLength="0" x="180" y="261.02"/><ellipse cx="114.5" cy="271.7188" fill="#FFCC00" rx="2.5" ry="2.5" style="stroke:#FFCC00;stroke-width:0.0;"/><text fill="#FFCC00" font-family="sans-serif" font-size="13" lengthAdjust="spacing" textLength="125" x="122" y="276.1528">Proxy configuration</text><!--MD5=[df8795f093d89ad9d8916098eae9ab5d]
link cl to rauc--><path d="M399.643,44.7821 C490.744,47.1621 646.69,56.0791 692,88.9531 C719.54,108.9341 731.812,148.8181 736.852,172.3571 " fill="none" id="cl-to-rauc" style="stroke:#FFCC00;stroke-width:1.0;stroke-dasharray:7.0,7.0;"/><polygon fill="#FFCC00" points="737.875,177.4011,740.0053,167.7854,736.8807,172.501,732.1651,169.3763,737.875,177.4011" style="stroke:#FFCC00;stroke-width:1.0;"/><text fill="#FFCC00" font-family="sans-serif" font-size="13" lengthAdjust="spacing" textLength="0" x="795.5" y="109.52"/><ellipse cx="732.5" cy="120.2188" fill="#FFCC00" rx="2.5" ry="2.5" style="stroke:#FFCC00;stroke-width:0.0;"/><text fill="#FFCC00" font-family="sans-serif" font-size="13" lengthAdjust="spacing" textLength="120" x="740" y="124.6528">Bundle file location</text><!--MD5=[121a831ab97109626877e6ba550e3026]
@startuml
title SE Linux D-bus services

skinparam backgroundColor transparent
skinparam shadowing false
skinparam titleFontColor #ffcc00

skinparam usecase {
BackgroundColor transparent
BorderColor #ffcc00
ArrowColor #ffcc00
FontColor #ffcc00
}

(D-bus client) as cl

(se-version-checker) as ck #transparent
(se-identifier\nservice) as id

(se-downloader\nservice) as dl
(se-proxy\nservice) as prx

(RAUC) as rauc

cl -down-> ck #text:ffcc00 : "\n* Available versions\n* Check algorithm id"
id -up-> ck #text:ffcc00 : "\n* Current versions"
ck -up-> cl #text:ffcc00 : "\n* Acknowledgement / Refusal"

cl -down-> prx #text:ffcc00 : "\n* Proxy configuration"

cl -down-> dl #text:ffcc00 : "\n* Source URL\n* Destination file location"
prx -up-> dl #text:ffcc00 : "\n* Proxy configuration"

cl -down-> rauc #text:ffcc00;line.dashed : "\n* Bundle file location"
@enduml

PlantUML version 1.2021.15beta8(Unknown compile time)
(GPL source distribution)
Java Runtime: Java(TM) SE Runtime Environment
JVM: Java HotSpot(TM) 64-Bit Server VM
Default Encoding: UTF-8
Language: en
Country: US
--></g></svg>